# xmcd CD database file
#
# Track frame offsets:
#	150
#	14909
#	26049
#	38486
#	49923
#	64033
#	75903
#	88204
#	100343
#	119718
#	133153
#	150800
#	165234
#	177805
#	197342
#	209211
#	227479
#	242345
#	252486
#	266353
#	280220
#	295356
#	309817
#	325277
#	340780
#
# Disc length: 4747 seconds
#
# Revision: 0
# Processed by: cddbd v1.5.1PL2 Copyright (c) Steve Scherf et al.
# Submitted via: CdAid (MTCDDB.DLL V2003.12.21)
#
DISCID=58128919
DTITLE=Various Artist - A Touch Of Country Folk
DYEAR=2003
DGENRE=Folk
TTITLE0=High Noon....Tex Ritter
TTITLE1=Singing The Blues....Marty Robbins
TTITLE2=Crazy....Patsy Cline
TTITLE3=A White Sport Coat....Marty Robbins
TTITLE4=Don't Think Twice, It's All Right....Burl Ives
TTITLE5=Sweet Dreams....Patsy Cline
TTITLE6=By The Time I Get To Phoenix....Glen Campbell
TTITLE7=Little Green Apples....Burl Ives
TTITLE8=Ode To Billie Joe....Bobbie Gentry
TTITLE9=She Belongs To Me....Ray Stevens
TTITLE10=All of Me....Willie Nelson
TTITLE11=I Love How You Love Me....Lynn Anderson
TTITLE12=A Very Special Love Song....Charlie Rich
TTITLE13=Suspicions....Eddie Rabbitt
TTITLE14=All The Gold In California....Larry Gatlin
TTITLE15=Half The Way....Crystal Gayle
TTITLE16=Yesterday, When I Was Young....Roy Clark
TTITLE17=The Song We Made Love To....Mickey Gilley
TTITLE18=If Loving You Is Wrong, I Don't Want To Be Right....Barbara Mandrell
TTITLE19=My Heroes Have Always Been Cowboys....Willie Nelson
TTITLE20=September Song....Roy Clark
TTITLE21=Come A Little Bit Closer....Johnny Duncan (with Janie Frickie)
TTITLE22=Pour Me Another Tequila....Eddie Rabbitt
TTITLE23=When I Dream....Crystal Gayle
TTITLE24=If I Could Write A Song As Beautiful As You....Billy "Crash" Craddock
EXTD=ID3G:  80 YEAR: 2003
EXTT0=
EXTT1=
EXTT2=
EXTT3=
EXTT4=
EXTT5=
EXTT6=
EXTT7=
EXTT8=
EXTT9=
EXTT10=
EXTT11=
EXTT12=
EXTT13=
EXTT14=
EXTT15=
EXTT16=
EXTT17=
EXTT18=
EXTT19=
EXTT20=
EXTT21=
EXTT22=
EXTT23=
EXTT24=
PLAYORDER=
